<svg width="28" height="28" viewBox="0 0 28 28" fill="none" xmlns="http://www.w3.org/2000/svg">
<path d="M18.6601 9.74003V18.26C18.6601 18.48 18.4801 18.66 18.2601 18.66H9.74009C9.52009 18.66 9.34009 18.48 9.34009 18.26V9.74003C9.34009 9.52003 9.52009 9.34003 9.74009 9.34003H18.2601C18.4801 9.34003 18.6601 9.52003 18.6601 9.74003Z" fill="#00B7B7"/>
<path d="M28 12.04V9.74C28 9.52 27.82 9.34 27.6 9.34H25.4C25.18 9.34 25 9.16 25 8.94V3.4C25 3.18 24.82 3 24.6 3H19.06C18.84 3 18.66 2.82 18.66 2.6V0.4C18.66 0.18 18.48 0 18.26 0H15.96C15.74 0 15.56 0.18 15.56 0.4V2.6C15.56 2.82 15.38 3 15.16 3H12.84C12.62 3 12.44 2.82 12.44 2.6V0.4C12.44 0.18 12.26 0 12.04 0H9.74C9.52 0 9.34 0.18 9.34 0.4V2.6C9.34 2.82 9.16 3 8.94 3H3.4C3.18 3 3 3.18 3 3.4V8.94C3 9.16 2.82 9.34 2.6 9.34H0.4C0.18 9.34 0 9.52 0 9.74V12.04C0 12.26 0.18 12.44 0.4 12.44H2.6C2.82 12.44 3 12.62 3 12.84V15.16C3 15.38 2.82 15.56 2.6 15.56H0.4C0.18 15.56 0 15.74 0 15.96V18.26C0 18.48 0.18 18.66 0.4 18.66H2.6C2.82 18.66 3 18.84 3 19.06V24.6C3 24.82 3.18 25 3.4 25H8.94C9.16 25 9.34 25.18 9.34 25.4V27.6C9.34 27.82 9.52 28 9.74 28H12.04C12.26 28 12.44 27.82 12.44 27.6V25.4C12.44 25.18 12.62 25 12.84 25H15.16C15.38 25 15.56 25.18 15.56 25.4V27.6C15.56 27.82 15.74 28 15.96 28H18.26C18.48 28 18.66 27.82 18.66 27.6V25.4C18.66 25.18 18.84 25 19.06 25H24.6C24.82 25 25 24.82 25 24.6V19.06C25 18.84 25.18 18.66 25.4 18.66H27.6C27.82 18.66 28 18.48 28 18.26V15.96C28 15.74 27.82 15.56 27.6 15.56H25.4C25.18 15.56 25 15.38 25 15.16V12.84C25 12.62 25.18 12.44 25.4 12.44H27.6C27.82 12.44 28 12.26 28 12.04ZM22.6 23H5.4C5.18 23 5 22.82 5 22.6V5.4C5 5.18 5.18 5 5.4 5H22.6C22.82 5 23 5.18 23 5.4V22.6C23 22.82 22.82 23 22.6 23Z" fill="#CCCCCC"/>
</svg>
