<svg width="28" height="28" viewBox="0 0 28 28" fill="none" xmlns="http://www.w3.org/2000/svg">
<path d="M10 20.3107V7.68927C10 7.38214 10.3318 7.1896 10.5985 7.34197L21.6422 13.6527C21.911 13.8063 21.911 14.1937 21.6422 14.3473L10.5985 20.658C10.3318 20.8104 10 20.6179 10 20.3107Z" fill="#00B7B7"/>
<path fill-rule="evenodd" clip-rule="evenodd" d="M3 3V25H25V3H3ZM1.4 1C1.17909 1 1 1.17909 1 1.4V26.6C1 26.8209 1.17909 27 1.4 27H26.6C26.8209 27 27 26.8209 27 26.6V1.4C27 1.17909 26.8209 1 26.6 1H1.4Z" fill="#CCCCCC"/>
</svg>
