<svg width="28" height="28" viewBox="0 0 28 28" fill="none" xmlns="http://www.w3.org/2000/svg">
<path d="M2.38 26C2.16 26 1.98 25.82 1.98 25.6V10.6C1.98 10.38 1.8 10.2 1.58 10.2H0.4C0.18 10.2 0 10.38 0 10.6V27.6C0 27.82 0.18 28 0.4 28H27.6C27.82 28 28 27.82 28 27.6V10.6C28 10.38 27.82 10.2 27.6 10.2H26.4C26.18 10.2 26 10.38 26 10.6V25.6C26 25.82 25.82 26 25.6 26H2.38Z" fill="#CCCCCC"/>
<path fill-rule="evenodd" clip-rule="evenodd" d="M12 2.4C12 2.18 12.18 2 12.4 2H15.1C15.32 2 15.5 2.18 15.5 2.4V18.9L19.4 16.16C19.66 15.98 20.04 16.16 20.04 16.48V19.5C20.04 19.64 19.98 19.76 19.86 19.84L14.28 23.58C14.14 23.68 13.98 23.68 13.84 23.58L8.18 19.84C8.06 19.76 8 19.64 8 19.5V16.48C8 16.16 8.36 15.96 8.62 16.16L12 18.48V2.4Z" fill="#00B7B7"/>
</svg>
